<?xml version="1.0" encoding="iso-8859-1"?>
<!-- Generator: Adobe Illustrator 18.0.0, SVG Export Plug-In . SVG Version: 6.00 Build 0)  -->
<!DOCTYPE svg PUBLIC "-//W3C//DTD SVG 1.1//EN" "http://www.w3.org/Graphics/SVG/1.1/DTD/svg11.dtd">
<svg version="1.1" id="Capa_1" xmlns="http://www.w3.org/2000/svg" xmlns:xlink="http://www.w3.org/1999/xlink" x="0px" y="0px"
	 viewBox="0 0 493.098 493.098" style="enable-background:new 0 0 493.098 493.098;" xml:space="preserve">
<g id="XMLID_347_">
	<path id="XMLID_351_" d="M98.614,66.453c-13.608,0-24.655,11.042-24.655,24.654c0,2.905,0.596,5.633,1.509,8.218H65.74
		c-13.611,0-24.652,11.045-24.652,24.654c0,3.403,0.693,6.647,1.943,9.6h-18.38C11.04,133.579,0,144.622,0,158.234
		c0,13.611,11.04,24.657,24.651,24.657h34.075c2.941-41.944,19.248-83.004,48.877-116.438H98.614z"/>
	<path id="XMLID_350_" d="M275.68,182.891c13.611,0,24.658-11.046,24.658-24.657c0-13.612-11.047-24.655-24.658-24.655h-18.379
		c1.251-2.953,1.941-6.196,1.941-9.6c0-13.609-11.04-24.654-24.652-24.654h-19.453c-8.139,28.172-4.739,58.076,9.293,83.566H275.68z
		"/>
	<path id="XMLID_349_" d="M237.734,331.444c8.349-21.494,29.24-36.758,53.641-36.758h70.228c7.436,0,14.478,1.542,20.995,4.109
		c7.32-9.162,13.611-18.875,18.67-29.066c1.827-3.676,1.074-8.107-1.867-10.98c-1.81-1.768-4.203-2.697-6.611-2.697
		c-1.51,0-3.016,0.352-4.412,1.091c-20.854,10.945-43.82,16.423-66.787,16.423c-36.813,0-73.596-14.047-101.672-42.12
		c-45.603-45.6-54.174-114.224-25.701-168.461c1.912-3.642,1.269-8.09-1.602-11.024c-1.827-1.88-4.285-2.858-6.793-2.858
		c-1.426,0-2.851,0.318-4.19,0.979c-15.45,7.674-29.937,17.927-42.804,30.788c-63.97,63.961-63.97,167.688,0,231.669
		c20.529,20.527,45.187,34.379,71.282,41.733C216.656,344.028,226.258,335.905,237.734,331.444z"/>
	<path id="XMLID_348_" d="M468.44,394.686h-18.381c1.258-2.954,1.943-6.196,1.943-9.598c0-13.611-11.041-24.654-24.651-24.654
		h-42.605c0.917-2.585,1.511-5.313,1.511-8.221c0-13.608-11.042-24.654-24.653-24.654h-70.228c-13.607,0-24.65,11.046-24.65,24.654
		c0,2.908,0.591,5.636,1.507,8.221h-9.726c-13.608,0-24.658,11.043-24.658,24.654c0,3.401,0.692,6.643,1.941,9.598H217.41
		c-13.611,0-24.651,11.043-24.651,24.653c0,13.615,11.04,24.657,24.651,24.657H468.44c13.608,0,24.658-11.042,24.658-24.657
		C493.098,405.729,482.048,394.686,468.44,394.686z"/>
</g>
<g>
</g>
<g>
</g>
<g>
</g>
<g>
</g>
<g>
</g>
<g>
</g>
<g>
</g>
<g>
</g>
<g>
</g>
<g>
</g>
<g>
</g>
<g>
</g>
<g>
</g>
<g>
</g>
<g>
</g>
</svg>
