<svg id="Layer_1" data-name="Layer 1" xmlns="http://www.w3.org/2000/svg" viewBox="0 0 128 128"><title>LULLABY</title><path d="M81.637,40.854c-5.491-.468-10.877.935-16.108,2.3a77.76,77.76,0,0,1-9.174,2,2,2,0,0,0-1.739,1.982V87.7c0,10.2-8.3,19.413-18.5,20.54a16.246,16.246,0,0,1-12.834-3.9,16.04,16.04,0,0,1-5.232-12.158c0-10.2,8.3-19.411,18.506-20.539.54-.06,1.074-.089,1.606-.1.088,0,.177-.006.265-.007q.771-.007,1.527.051c.115.009.229.024.344.035q.618.06,1.223.164c.123.021.246.039.368.063.479.093.952.205,1.417.339.109.032.215.07.323.1q.546.17,1.075.379c.148.058.3.115.441.178.423.181.84.376,1.245.593.108.058.211.125.318.186a15.439,15.439,0,0,1,2.485,1.739A2,2,0,1,0,51.8,72.339c-.44-.381-.9-.727-1.372-1.064V24.208c5.487.467,10.875-.937,16.106-2.3s10.2-2.655,15.1-2.152ZM68.549,76.066,83.646,76a2,2,0,0,0-.009-4h-.009l-10.2.044,10.635-10.51a2,2,0,0,0-1.4-3.423l-14.95-.078h-.011a2,2,0,0,0-.011,4l10.117.053L67.134,72.644a2,2,0,0,0,1.406,3.423ZM93.109,58.949l18.855-.082a2,2,0,0,0-.009-4h-.009l-13.956.061L112.529,40.56a2,2,0,0,0-1.4-3.423l-19.085-.1h-.011a2,2,0,0,0-.011,4l14.253.074L91.694,55.526A2,2,0,0,0,93.1,58.949Z"/></svg>